<?xml version="1.0" standalone="no"?>
<!DOCTYPE svg PUBLIC "-//W3C//DTD SVG 20010904//EN"
 "http://www.w3.org/TR/2001/REC-SVG-20010904/DTD/svg10.dtd">
<svg version="1.0" xmlns="http://www.w3.org/2000/svg"
 width="1754.000000pt" height="1240.000000pt" viewBox="0 0 1754.000000 1240.000000"
 preserveAspectRatio="xMidYMid meet">

<g transform="translate(0.000000,1240.000000) scale(0.100000,-0.100000)"
fill="#000000" stroke="none">
<path d="M6144 9760 c-31 -12 -72 -66 -80 -105 -18 -97 76 -182 174 -156 117
32 138 196 31 253 -35 19 -90 23 -125 8z"/>
<path d="M12293 9750 c-46 -28 -66 -72 -60 -134 4 -41 11 -55 40 -82 48 -44
94 -52 149 -25 51 24 79 66 80 119 1 79 -59 142 -137 142 -22 0 -54 -9 -72
-20z"/>
<path d="M11285 9351 c-107 -28 -185 -126 -185 -233 0 -96 70 -193 162 -224
130 -43 265 29 304 163 21 72 7 144 -39 205 -54 70 -162 110 -242 89z"/>
<path d="M5133 9253 c-36 -7 -80 -56 -93 -101 -9 -36 -8 -49 9 -86 33 -76 112
-105 186 -70 54 25 77 67 72 132 -7 91 -79 143 -174 125z"/>
<path d="M7170 9243 c-88 -46 -106 -152 -37 -220 68 -69 174 -51 220 37 21 40
18 97 -7 135 -38 58 -116 79 -176 48z"/>
<path d="M9243 9253 c-35 -7 -80 -56 -92 -100 -27 -99 59 -188 163 -169 99 19
141 159 68 229 -43 41 -80 51 -139 40z"/>
<path d="M13355 9253 c-68 -17 -115 -100 -96 -171 27 -100 157 -135 230 -61
100 99 3 266 -134 232z"/>
<path d="M6084 8942 c-122 -43 -206 -141 -234 -276 -22 -107 17 -231 100 -314
149 -149 412 -131 536 37 39 53 74 154 74 216 0 62 -35 163 -74 216 -87 117
-260 170 -402 121z"/>
<path d="M10194 8942 c-95 -33 -165 -99 -211 -199 -22 -47 -27 -72 -27 -138 0
-69 4 -90 30 -145 59 -125 166 -199 298 -208 174 -11 315 84 366 247 11 35 20
82 20 106 0 62 -35 163 -74 216 -87 117 -260 170 -402 121z"/>
<path d="M12236 8936 c-151 -64 -235 -198 -224 -358 10 -130 86 -240 207 -297
48 -22 69 -26 151 -26 85 0 101 3 153 29 68 35 139 107 169 173 18 39 22 66
22 148 0 119 -18 168 -88 243 -68 72 -141 105 -246 109 -73 3 -93 0 -144 -21z"/>
<path d="M8152 8819 c-138 -68 -175 -251 -75 -368 45 -54 105 -81 176 -81 139
0 237 98 237 235 0 99 -55 183 -142 219 -54 23 -144 20 -196 -5z"/>
<path d="M5062 8429 c-84 -27 -156 -87 -201 -169 -35 -62 -36 -69 -36 -165 0
-87 3 -107 26 -156 49 -105 143 -175 266 -199 113 -22 236 22 322 116 142 155
112 410 -62 528 -98 66 -202 81 -315 45z"/>
<path d="M7147 8440 c-105 -27 -197 -104 -244 -205 -24 -51 -28 -73 -28 -145
0 -76 4 -93 33 -152 99 -203 353 -266 534 -133 166 122 190 370 52 524 -83 93
-231 140 -347 111z"/>
<path d="M9169 8427 c-79 -27 -128 -62 -174 -125 -99 -137 -84 -343 35 -462
190 -190 518 -108 594 150 57 190 -53 389 -243 444 -74 22 -134 20 -212 -7z"/>
<path d="M11257 8440 c-105 -27 -197 -104 -244 -205 -24 -51 -28 -73 -28 -145
0 -76 4 -93 33 -152 99 -203 353 -266 534 -133 166 122 190 370 52 524 -83 93
-231 140 -347 111z"/>
<path d="M13340 8219 c-71 -28 -103 -103 -75 -175 52 -137 249 -112 262 33 9
107 -88 181 -187 142z"/>
<path d="M6130 7926 c-150 -33 -253 -140 -281 -293 -28 -149 61 -314 202 -378
137 -61 281 -39 387 60 80 74 116 151 116 255 1 90 -13 142 -57 206 -80 119
-230 181 -367 150z"/>
<path d="M8197 7929 c-125 -20 -238 -116 -277 -235 -59 -175 22 -365 188 -442
48 -22 71 -27 147 -27 77 0 98 4 146 26 79 37 133 90 171 167 30 61 33 75 33
162 0 83 -3 102 -28 151 -69 141 -227 223 -380 198z"/>
<path d="M10240 7927 c-111 -25 -203 -96 -250 -192 -109 -226 45 -492 296
-513 190 -15 360 131 380 326 8 74 -20 177 -66 240 -78 108 -231 167 -360 139z"/>
<path d="M12292 7801 c-135 -47 -199 -193 -141 -321 27 -60 54 -88 114 -116
122 -58 270 -1 323 126 23 57 13 157 -23 215 -57 91 -173 132 -273 96z"/>
<path d="M4095 7706 c-74 -33 -107 -124 -71 -195 36 -69 131 -92 197 -48 91
61 79 201 -21 241 -48 19 -65 19 -105 2z"/>
<path d="M7113 7401 c-71 -24 -127 -65 -169 -123 -91 -124 -95 -291 -10 -415
123 -179 388 -206 543 -55 148 144 142 379 -12 520 -93 86 -233 115 -352 73z"/>
<path d="M9185 7407 c-106 -36 -188 -105 -228 -195 -32 -72 -35 -200 -7 -274
28 -76 104 -159 178 -195 51 -25 68 -28 157 -28 84 0 107 4 147 24 75 37 134
95 170 169 30 60 33 75 33 157 0 77 -4 98 -27 147 -34 73 -104 143 -176 176
-68 31 -184 40 -247 19z"/>
<path d="M5086 7285 c-85 -30 -147 -123 -147 -220 0 -136 99 -235 236 -235
137 0 235 101 235 241 0 50 -36 133 -71 166 -63 57 -170 78 -253 48z"/>
<path d="M11231 7274 c-179 -90 -169 -353 16 -431 18 -7 59 -13 91 -13 217 0
318 256 160 407 -71 69 -174 83 -267 37z"/>
<path d="M8182 6775 c-139 -43 -203 -204 -134 -335 74 -142 263 -170 375 -57
121 121 73 336 -88 390 -57 20 -95 20 -153 2z"/>
<path d="M10250 6781 c-135 -44 -203 -166 -166 -296 32 -107 115 -169 226
-169 249 0 329 332 108 445 -45 23 -129 33 -168 20z"/>
<path d="M6145 6682 c-94 -44 -111 -155 -35 -227 60 -58 172 -39 212 36 63
117 -57 246 -177 191z"/>
<path d="M4083 6674 c-97 -49 -96 -202 1 -248 122 -58 245 71 182 192 -9 17
-28 39 -41 48 -37 24 -104 28 -142 8z"/>
<path d="M12301 6673 c-96 -48 -94 -201 3 -247 45 -21 83 -20 126 3 44 23 73
71 73 121 0 103 -108 169 -202 123z"/>
<path d="M7180 6268 c-117 -20 -201 -138 -186 -262 21 -183 251 -271 387 -149
184 166 43 454 -201 411z"/>
<path d="M9275 6274 c-6 -1 -26 -5 -46 -8 -61 -11 -125 -61 -155 -122 -100
-204 106 -417 311 -320 60 28 87 56 114 116 23 51 27 114 9 171 -13 46 -68
113 -109 135 -30 15 -106 33 -124 28z"/>
<path d="M11295 6168 c-83 -29 -117 -114 -78 -195 25 -53 66 -75 132 -70 47 3
59 9 87 40 44 47 51 92 26 150 -29 65 -103 98 -167 75z"/>
<path d="M8173 5640 c-98 -59 -77 -214 34 -251 116 -38 220 84 167 197 -33 69
-133 96 -201 54z"/>
<path d="M4835 3874 c-153 -20 -245 -61 -334 -151 -119 -119 -173 -267 -174
-473 0 -319 156 -544 419 -606 52 -12 99 -15 189 -11 169 7 256 39 353 131 73
68 126 152 159 250 24 74 27 95 27 236 0 143 -2 162 -27 237 -64 192 -197 322
-373 366 -63 17 -190 27 -239 21z m207 -226 c156 -66 241 -296 193 -523 -30
-140 -111 -246 -216 -280 -80 -27 -208 -18 -277 20 -119 65 -182 201 -182 393
0 139 34 239 111 327 77 88 246 116 371 63z"/>
<path d="M12910 3869 c-201 -30 -309 -157 -298 -348 6 -95 32 -156 93 -215 52
-51 109 -80 242 -125 121 -40 204 -83 237 -121 21 -26 26 -42 26 -87 0 -51 -3
-59 -35 -89 -71 -67 -217 -68 -386 -3 -100 39 -155 41 -181 9 -104 -128 96
-260 394 -260 270 0 416 114 435 340 10 117 -41 236 -126 294 -47 33 -152 79
-275 122 -55 19 -115 44 -134 56 -41 25 -72 73 -72 111 0 118 149 150 362 77
137 -46 187 -33 203 56 17 88 -138 173 -340 187 -44 3 -109 1 -145 -4z"/>
<path d="M11705 3860 c-101 -11 -148 -26 -176 -56 l-24 -26 -2 -526 c-2 -407
0 -533 10 -552 7 -14 29 -33 51 -44 32 -16 44 -17 75 -7 74 22 76 27 79 265
l3 211 82 -3 c45 -2 87 -9 93 -15 6 -7 65 -102 132 -212 66 -110 133 -212 147
-225 49 -46 142 -24 166 38 21 54 5 93 -116 277 -64 99 -112 181 -106 183 6 2
33 18 59 35 122 82 174 262 122 429 -34 109 -113 178 -246 213 -71 19 -252 27
-349 15z m295 -223 c63 -32 93 -91 87 -169 -10 -117 -72 -165 -225 -175 -49
-3 -101 -3 -116 1 l-26 6 0 180 0 179 43 4 c86 9 190 -2 237 -26z"/>
<path d="M1345 3846 c-17 -7 -36 -25 -43 -40 -9 -20 -12 -161 -12 -561 l0
-535 28 -32 c24 -26 36 -31 73 -31 24 0 55 5 67 12 51 27 52 41 52 593 0 468
-2 516 -18 548 -28 56 -84 74 -147 46z"/>
<path d="M1765 3851 c-49 -21 -72 -74 -55 -126 19 -58 45 -65 235 -65 l165 0
0 -465 c0 -519 -1 -513 66 -541 48 -20 98 -9 129 28 l25 30 0 474 0 474 176 0
176 0 29 29 c38 39 40 97 5 138 l-24 28 -454 2 c-249 1 -462 -2 -473 -6z"/>
<path d="M2987 3844 c-15 -8 -32 -26 -37 -40 -14 -35 -13 -1074 0 -1109 23
-61 132 -68 174 -12 20 27 21 43 26 382 l5 354 125 -196 c69 -108 137 -205
151 -216 31 -23 90 -25 122 -4 12 8 76 101 141 208 66 107 125 201 133 209 11
12 13 -44 13 -347 0 -348 1 -361 21 -386 30 -39 85 -53 131 -34 71 30 69 14
66 612 l-3 535 -28 27 c-39 40 -104 39 -146 -1 -16 -16 -107 -154 -202 -307
-95 -154 -175 -276 -178 -273 -3 3 -88 134 -187 292 -143 225 -189 290 -215
304 -41 22 -75 22 -112 2z"/>
<path d="M6284 3841 c-17 -11 -36 -34 -43 -52 -14 -41 -15 -654 -1 -754 39
-268 169 -392 425 -403 272 -11 415 84 482 319 16 57 18 108 18 451 0 377 -1
387 -21 415 -41 55 -127 55 -168 0 -20 -27 -21 -42 -26 -425 l-5 -397 -31 -55
c-25 -44 -42 -61 -85 -83 -50 -27 -61 -29 -141 -25 -78 4 -93 8 -130 34 -25
17 -52 49 -67 79 l-26 49 -5 396 c-5 360 -7 397 -23 422 -33 47 -101 61 -153
29z"/>
<path d="M7540 3847 c-50 -25 -50 -25 -50 -594 0 -328 4 -542 10 -558 15 -38
73 -60 122 -46 68 21 68 24 68 433 0 339 1 361 17 346 9 -10 143 -185 297
-390 247 -328 285 -374 318 -385 48 -16 100 -1 124 35 18 25 19 58 19 564 0
529 0 537 -21 565 -40 54 -136 53 -167 -1 -9 -15 -13 -128 -17 -392 l-5 -372
-289 388 c-294 397 -315 420 -378 420 -12 0 -34 -6 -48 -13z"/>
<path d="M8845 3846 c-17 -7 -36 -25 -43 -40 -9 -20 -12 -161 -12 -561 l0
-535 28 -32 c24 -26 36 -31 73 -31 57 0 87 17 105 58 21 51 21 1039 0 1090
-24 57 -88 79 -151 51z"/>
<path d="M9282 3845 c-46 -20 -69 -75 -54 -130 6 -22 103 -263 216 -535 136
-331 213 -504 231 -522 21 -22 35 -28 70 -28 83 0 82 -3 310 582 113 290 205
541 205 558 0 64 -92 111 -146 76 -14 -10 -33 -30 -42 -45 -9 -16 -82 -207
-162 -425 -80 -218 -148 -396 -151 -396 -4 0 -73 168 -154 373 -177 450 -188
473 -225 492 -36 18 -55 18 -98 0z"/>
<path d="M10504 3841 c-17 -11 -36 -34 -43 -52 -8 -22 -11 -188 -11 -541 0
-433 2 -515 15 -542 29 -61 28 -61 390 -64 300 -2 333 -1 365 15 65 33 78 120
23 163 -24 19 -39 20 -294 20 l-269 0 0 165 0 165 209 0 209 0 31 26 c26 22
31 33 31 69 0 32 -7 52 -24 72 l-24 28 -216 3 -216 3 0 144 0 144 265 3 c252
3 265 4 285 24 25 25 35 80 21 117 -21 53 -48 57 -398 57 -295 0 -320 -1 -349
-19z"/>
<path d="M13720 3847 c-14 -7 -33 -28 -42 -47 -16 -32 -18 -80 -18 -548 0
-552 1 -566 52 -593 12 -7 43 -12 67 -12 37 0 49 5 73 31 l28 32 0 536 c0 590
1 581 -61 603 -41 14 -68 14 -99 -2z"/>
<path d="M14123 3841 c-50 -31 -57 -116 -11 -157 18 -17 41 -19 199 -22 l179
-3 0 -474 0 -473 25 -30 c46 -54 139 -48 175 11 19 30 20 54 20 500 l0 467
165 0 c179 0 207 6 231 51 28 55 6 119 -47 138 -22 7 -175 11 -468 11 -413 0
-438 -1 -468 -19z"/>
<path d="M15354 3850 c-32 -13 -64 -59 -64 -92 0 -49 21 -85 199 -338 l171
-244 0 -206 c0 -223 7 -268 47 -300 29 -22 87 -27 127 -9 50 23 56 57 56 298
l0 221 180 270 c153 230 180 276 180 308 0 48 -21 77 -65 92 -30 10 -41 9 -72
-7 -32 -15 -61 -54 -180 -238 -78 -121 -146 -221 -150 -222 -4 -1 -74 98 -156
220 -169 255 -195 279 -273 247z"/>
</g>
</svg>
